# xmcd CD database file
#
# Track frame offsets:
#	150
#	23428
#	48088
#	62795
#	78783
#	94643
#	123275
#	145918
#	167995
#	202368
#	218133
#	230140
#
# Disc length: 3376 seconds
#
# Revision: 1
# Processed by: cddbd v1.5.2PL0 Copyright (c) Steve Scherf et al.
# Submitted via: CDex 1.40Release
#
DISCID=a30d2e0c
DTITLE=Acustic Blues Gang - Pretty Girl
DYEAR=1993
DGENRE=Blues
TTITLE0=Pretty Girl
TTITLE1=Caledonia
TTITLE2=It's alright mama
TTITLE3=born under a bad sign
TTITLE4=messin'with teh kid
TTITLE5=I Don't wann talk about it
TTITLE6=call me the breeze
TTITLE7=brown sugar
TTITLE8=ramlin' on my mind
TTITLE9=walking by myself
TTITLE10=sugaree
TTITLE11=knockin' on heavens door
EXTD=YEAR: 1993 ID3G: 0
EXTT0=
EXTT1=
EXTT2=
EXTT3=
EXTT4=
EXTT5=
EXTT6=
EXTT7=
EXTT8=
EXTT9=
EXTT10=
EXTT11=
PLAYORDER=
